<svg width="200" height="22" viewBox="0 0 200 22" fill="none" xmlns="http://www.w3.org/2000/svg">
<path d="M36.3493 16.9998V4.36946H39.2904L44.5049 12.9581H42.9532L48.0594 4.36946H51.0005L51.0366 16.9998H47.7346L47.7166 9.36745H48.2759L44.4688 15.7548H42.881L38.9656 9.36745H39.6332V16.9998H36.3493ZM58.5586 17.1621C57.4039 17.1621 56.3935 16.9456 55.5274 16.5126C54.6733 16.0675 54.0057 15.4661 53.5246 14.7083C53.0554 13.9384 52.8209 13.0663 52.8209 12.092C52.8209 11.1176 53.0494 10.2516 53.5065 9.49375C53.9757 8.7239 54.6192 8.12848 55.4372 7.70747C56.2551 7.27443 57.1753 7.05791 58.1978 7.05791C59.1601 7.05791 60.0382 7.25638 60.8321 7.65334C61.626 8.03826 62.2575 8.60963 62.7266 9.36745C63.1958 10.1253 63.4303 11.0455 63.4303 12.1281C63.4303 12.2484 63.4243 12.3867 63.4123 12.5431C63.4003 12.6994 63.3882 12.8438 63.3762 12.9761H55.6356V11.1718H61.5538L60.2547 11.677C60.2667 11.2319 60.1825 10.847 60.0021 10.5222C59.8337 10.1974 59.5931 9.94483 59.2804 9.7644C58.9797 9.58397 58.6248 9.49375 58.2158 9.49375C57.8068 9.49375 57.446 9.58397 57.1332 9.7644C56.8325 9.94483 56.5979 10.2035 56.4295 10.5403C56.2611 10.865 56.1769 11.25 56.1769 11.695V12.2183C56.1769 12.6994 56.2732 13.1144 56.4656 13.4633C56.6701 13.8121 56.9588 14.0828 57.3317 14.2752C57.7046 14.4557 58.1497 14.5459 58.6669 14.5459C59.1481 14.5459 59.557 14.4797 59.8938 14.3474C60.2427 14.203 60.5855 13.9865 60.9223 13.6978L62.7266 15.5743C62.2575 16.0916 61.6801 16.4885 60.9945 16.7652C60.3088 17.0298 59.4969 17.1621 58.5586 17.1621ZM67.1258 16.9998V9.18702L67.8656 9.94483H63.9682V7.2203H73.6755V9.94483H69.7782L70.536 9.18702V16.9998H67.1258ZM129.191 16.9998V4.36946H132.71V11.7852L137.924 4.36946H141.28V16.9998H137.762V9.60201L132.565 16.9998H129.191ZM143.794 16.9998V7.2203H147.204V10.847H150.722V7.2203H154.151V16.9998H150.722V13.5715H147.204V16.9998H143.794ZM158.646 16.9998V9.18702L159.386 9.94483H155.489V7.2203H165.196V9.94483H161.298L162.056 9.18702V16.9998H158.646ZM171.171 17.1621C170.016 17.1621 169.005 16.9456 168.139 16.5126C167.285 16.0675 166.618 15.4661 166.136 14.7083C165.667 13.9384 165.433 13.0663 165.433 12.092C165.433 11.1176 165.661 10.2516 166.118 9.49375C166.588 8.7239 167.231 8.12848 168.049 7.70747C168.867 7.27443 169.787 7.05791 170.81 7.05791C171.772 7.05791 172.65 7.25638 173.444 7.65334C174.238 8.03826 174.869 8.60963 175.339 9.36745C175.808 10.1253 176.042 11.0455 176.042 12.1281C176.042 12.2484 176.036 12.3867 176.024 12.5431C176.012 12.6994 176 12.8438 175.988 12.9761H168.248V11.1718H174.166L172.867 11.677C172.879 11.2319 172.794 10.847 172.614 10.5222C172.446 10.1974 172.205 9.94483 171.892 9.7644C171.592 9.58397 171.237 9.49375 170.828 9.49375C170.419 9.49375 170.058 9.58397 169.745 9.7644C169.444 9.94483 169.21 10.2035 169.041 10.5403C168.873 10.865 168.789 11.25 168.789 11.695V12.2183C168.789 12.6994 168.885 13.1144 169.078 13.4633C169.282 13.8121 169.571 14.0828 169.944 14.2752C170.317 14.4557 170.762 14.5459 171.279 14.5459C171.76 14.5459 172.169 14.4797 172.506 14.3474C172.855 14.203 173.197 13.9865 173.534 13.6978L175.339 15.5743C174.869 16.0916 174.292 16.4885 173.606 16.7652C172.921 17.0298 172.109 17.1621 171.171 17.1621ZM184.71 16.9998L181.733 12.4348L184.494 10.8109L188.752 16.9998H184.71ZM177.854 16.9998V7.2203H181.282V16.9998H177.854ZM180.272 13.5174V10.829H183.808V13.5174H180.272ZM184.837 12.4889L181.625 12.1642L184.909 7.2203H188.536L184.837 12.4889ZM194.515 17.1621C193.432 17.1621 192.464 16.9456 191.61 16.5126C190.768 16.0795 190.106 15.4841 189.625 14.7263C189.144 13.9565 188.903 13.0783 188.903 12.092C188.903 11.1056 189.144 10.2335 189.625 9.47571C190.106 8.71789 190.768 8.12848 191.61 7.70747C192.464 7.27443 193.432 7.05791 194.515 7.05791C195.621 7.05791 196.578 7.29247 197.383 7.7616C198.189 8.23072 198.761 8.89231 199.098 9.74636L196.445 11.0996C196.217 10.6425 195.934 10.3117 195.597 10.1072C195.26 9.8907 194.894 9.78244 194.497 9.78244C194.1 9.78244 193.739 9.87266 193.414 10.0531C193.089 10.2335 192.831 10.4982 192.638 10.847C192.458 11.1838 192.367 11.5988 192.367 12.092C192.367 12.5972 192.458 13.0242 192.638 13.3731C192.831 13.7219 193.089 13.9865 193.414 14.167C193.739 14.3474 194.1 14.4376 194.497 14.4376C194.894 14.4376 195.26 14.3354 195.597 14.1309C195.934 13.9144 196.217 13.5775 196.445 13.1205L199.098 14.4737C198.761 15.3277 198.189 15.9893 197.383 16.4585C196.578 16.9276 195.621 17.1621 194.515 17.1621Z" fill="#011D45"/>
<path d="M75.2023 16.9998V4.36946H87.0567V16.9998H83.5203V6.40835L84.3142 7.20225H77.9449L78.7207 6.40835V16.9998H75.2023ZM95.711 17.1621C94.881 17.1621 94.1713 16.9817 93.5819 16.6208C92.9925 16.248 92.5414 15.6946 92.2287 14.9609C91.9279 14.2151 91.7776 13.2648 91.7776 12.11C91.7776 10.9432 91.9219 9.99295 92.2106 9.25919C92.4993 8.5134 92.9324 7.96007 93.5097 7.59921C94.0992 7.23834 94.8329 7.05791 95.711 7.05791C96.6012 7.05791 97.4071 7.26841 98.1288 7.68942C98.8626 8.0984 99.44 8.6818 99.861 9.43962C100.294 10.1854 100.511 11.0755 100.511 12.11C100.511 13.1445 100.294 14.0407 99.861 14.7985C99.44 15.5563 98.8626 16.1397 98.1288 16.5487C97.4071 16.9577 96.6012 17.1621 95.711 17.1621ZM89.5583 20.5002V7.2203H92.8241V8.88028L92.8061 12.11L92.9865 15.3578V20.5002H89.5583ZM94.9893 14.4376C95.3742 14.4376 95.717 14.3474 96.0178 14.167C96.3305 13.9865 96.5771 13.7219 96.7575 13.3731C96.95 13.0242 97.0462 12.6032 97.0462 12.11C97.0462 11.6168 96.95 11.1958 96.7575 10.847C96.5771 10.4982 96.3305 10.2335 96.0178 10.0531C95.717 9.87266 95.3742 9.78244 94.9893 9.78244C94.6044 9.78244 94.2555 9.87266 93.9428 10.0531C93.6421 10.2335 93.3955 10.4982 93.203 10.847C93.0226 11.1958 92.9324 11.6168 92.9324 12.11C92.9324 12.6032 93.0226 13.0242 93.203 13.3731C93.3955 13.7219 93.6421 13.9865 93.9428 14.167C94.2555 14.3474 94.6044 14.4376 94.9893 14.4376ZM106.974 17.1621C105.904 17.1621 104.954 16.9456 104.124 16.5126C103.294 16.0795 102.638 15.4841 102.157 14.7263C101.688 13.9565 101.453 13.0783 101.453 12.092C101.453 11.1056 101.688 10.2335 102.157 9.47571C102.638 8.71789 103.294 8.12848 104.124 7.70747C104.954 7.27443 105.904 7.05791 106.974 7.05791C108.045 7.05791 108.995 7.27443 109.825 7.70747C110.667 8.12848 111.323 8.71789 111.792 9.47571C112.261 10.2335 112.496 11.1056 112.496 12.092C112.496 13.0783 112.261 13.9565 111.792 14.7263C111.323 15.4841 110.667 16.0795 109.825 16.5126C108.995 16.9456 108.045 17.1621 106.974 17.1621ZM106.974 14.4376C107.371 14.4376 107.72 14.3474 108.021 14.167C108.334 13.9865 108.58 13.7219 108.761 13.3731C108.941 13.0122 109.031 12.5852 109.031 12.092C109.031 11.5988 108.941 11.1838 108.761 10.847C108.58 10.4982 108.334 10.2335 108.021 10.0531C107.72 9.87266 107.371 9.78244 106.974 9.78244C106.589 9.78244 106.241 9.87266 105.928 10.0531C105.627 10.2335 105.381 10.4982 105.188 10.847C105.008 11.1838 104.917 11.5988 104.917 12.092C104.917 12.5852 105.008 13.0122 105.188 13.3731C105.381 13.7219 105.627 13.9865 105.928 14.167C106.241 14.3474 106.589 14.4376 106.974 14.4376ZM114.103 16.9998V7.2203H117.712L121.122 13.6076H119.697L123.432 7.2203H126.662L126.68 16.9998H123.594V10.6124L124.117 10.9733L121.086 16.1337H119.625L116.593 10.7207L117.189 10.5583V16.9998H114.103Z" fill="#FE0000"/>
<path d="M3.02703 8.5019C3.5403 6.50057 5.34401 5.10107 7.41011 5.10107H11.9029C11.9029 5.10107 11.5438 5.69487 11.2616 6.80149C10.9794 7.90811 10.8255 8.5019 10.8255 8.5019L9.95328 11.9027L9.08109 15.3036C8.56782 17.3049 6.76411 18.7044 4.698 18.7044H0C0 18.7044 0.367497 18.3672 0.718278 17.1929C1.28264 15.3036 1.28264 15.3036 1.28264 15.3036L2.15483 11.9027L3.02703 8.5019Z" fill="#FE0000"/>
<path d="M12.5968 8.5019C13.1487 6.49321 14.975 5.10107 17.0581 5.10107H22.1066C22.1066 5.10107 21.7218 5.69487 21.4195 6.80149C21.1172 7.90811 20.9522 8.5019 20.9522 8.5019L20.0177 11.9027L19.0833 15.3036C18.5313 17.3122 16.705 18.7044 14.6219 18.7044H9.35352C9.35352 18.7044 9.74726 18.3672 10.1231 17.1929C10.7278 15.3036 10.7278 15.3036 10.7278 15.3036L11.6623 11.9027L12.5968 8.5019Z" fill="#011D45"/>
<path d="M22.5818 8.5019C23.0951 6.50057 24.8988 5.10107 26.9649 5.10107H31.4576C31.4576 5.10107 31.0985 5.69487 30.8163 6.80149C30.5341 7.90811 30.3802 8.5019 30.3802 8.5019L29.508 11.9027L28.6358 15.3036C28.1226 17.3049 26.3189 18.7044 24.2528 18.7044H19.5547C19.5547 18.7044 19.9222 18.3672 20.273 17.1929C20.8374 15.3036 20.8374 15.3036 20.8374 15.3036L21.7096 11.9027L22.5818 8.5019Z" fill="#011D45"/>
</svg>
