<svg width="346" height="38" viewBox="0 0 346 38" fill="none" xmlns="http://www.w3.org/2000/svg">
<path d="M62.8475 30V8.16288H67.9324L76.948 23.0121H74.2652L83.0936 8.16288H88.1786L88.241 30H82.5321L82.5009 16.8041H83.468L76.8857 27.8475H74.1404L67.3709 16.8041H68.5252V30H62.8475ZM101.246 30.2808C99.2497 30.2808 97.5027 29.9064 96.0053 29.1577C94.5287 28.3882 93.3745 27.3483 92.5426 26.0381C91.7315 24.7071 91.3259 23.1993 91.3259 21.5147C91.3259 19.8301 91.7211 18.3327 92.5114 17.0225C93.3225 15.6915 94.4351 14.662 95.8493 13.9341C97.2635 13.1854 98.8545 12.8111 100.622 12.8111C102.286 12.8111 103.804 13.1542 105.177 13.8405C106.55 14.506 107.641 15.4939 108.452 16.8041C109.264 18.1144 109.669 19.7054 109.669 21.5771C109.669 21.7851 109.659 22.0243 109.638 22.2946C109.617 22.565 109.596 22.8145 109.576 23.0433H96.1925V19.9237H106.425L104.179 20.7972C104.199 20.0277 104.054 19.3622 103.742 18.8007C103.451 18.2392 103.035 17.8024 102.494 17.4905C101.974 17.1785 101.361 17.0225 100.654 17.0225C99.9464 17.0225 99.3225 17.1785 98.7817 17.4905C98.2618 17.8024 97.8563 18.2496 97.5651 18.8319C97.2739 19.3934 97.1284 20.0589 97.1284 20.8284V21.7331C97.1284 22.565 97.2947 23.2825 97.6275 23.8856C97.9811 24.4887 98.4802 24.9567 99.1249 25.2894C99.7696 25.6014 100.539 25.7574 101.433 25.7574C102.265 25.7574 102.972 25.643 103.555 25.4142C104.158 25.1646 104.751 24.7903 105.333 24.2912L108.452 27.5355C107.641 28.4298 106.643 29.1161 105.458 29.5945C104.272 30.052 102.868 30.2808 101.246 30.2808ZM116.058 30V16.4922L117.337 17.8024H110.599V13.0918H127.383V17.8024H120.644L121.954 16.4922V30H116.058ZM223.366 30V8.16288H229.449V20.9844L238.465 8.16288H244.267V30H238.184V17.2097L229.2 30H223.366ZM248.613 30V13.0918H254.509V19.3622H260.593V13.0918H266.52V30H260.593V24.0728H254.509V30H248.613ZM274.292 30V16.4922L275.571 17.8024H268.833V13.0918H285.616V17.8024H278.878L280.188 16.4922V30H274.292ZM295.946 30.2808C293.95 30.2808 292.203 29.9064 290.705 29.1577C289.229 28.3882 288.075 27.3483 287.243 26.0381C286.432 24.7071 286.026 23.1993 286.026 21.5147C286.026 19.8301 286.421 18.3327 287.211 17.0225C288.023 15.6915 289.135 14.662 290.549 13.9341C291.964 13.1854 293.555 12.8111 295.322 12.8111C296.986 12.8111 298.504 13.1542 299.877 13.8405C301.25 14.506 302.341 15.4939 303.153 16.8041C303.964 18.1144 304.369 19.7054 304.369 21.5771C304.369 21.7851 304.359 22.0243 304.338 22.2946C304.317 22.565 304.296 22.8145 304.276 23.0433H290.893V19.9237H301.125L298.879 20.7972C298.9 20.0277 298.754 19.3622 298.442 18.8007C298.151 18.2392 297.735 17.8024 297.194 17.4905C296.674 17.1785 296.061 17.0225 295.354 17.0225C294.646 17.0225 294.023 17.1785 293.482 17.4905C292.962 17.8024 292.556 18.2496 292.265 18.8319C291.974 19.3934 291.828 20.0589 291.828 20.8284V21.7331C291.828 22.565 291.995 23.2825 292.328 23.8856C292.681 24.4887 293.18 24.9567 293.825 25.2894C294.47 25.6014 295.239 25.7574 296.133 25.7574C296.965 25.7574 297.672 25.643 298.255 25.4142C298.858 25.1646 299.451 24.7903 300.033 24.2912L303.153 27.5355C302.341 28.4298 301.343 29.1161 300.158 29.5945C298.972 30.052 297.568 30.2808 295.946 30.2808ZM319.356 30L314.209 22.1074L318.982 19.2998L326.344 30H319.356ZM307.502 30V13.0918H313.429V30H307.502ZM311.682 23.9792V19.331H317.796V23.9792H311.682ZM319.575 22.201L314.022 21.6395L319.699 13.0918H325.97L319.575 22.201ZM336.307 30.2808C334.435 30.2808 332.761 29.9064 331.284 29.1577C329.829 28.409 328.685 27.3795 327.853 26.0693C327.021 24.7383 326.605 23.2201 326.605 21.5147C326.605 19.8093 327.021 18.3015 327.853 16.9913C328.685 15.6811 329.829 14.662 331.284 13.9341C332.761 13.1854 334.435 12.8111 336.307 12.8111C338.22 12.8111 339.874 13.2166 341.267 14.0277C342.661 14.8388 343.648 15.9826 344.231 17.4593L339.645 19.7989C339.25 19.0087 338.761 18.4367 338.179 18.0832C337.596 17.7088 336.962 17.5216 336.276 17.5216C335.589 17.5216 334.966 17.6776 334.404 17.9896C333.842 18.3015 333.395 18.7591 333.063 19.3622C332.751 19.9445 332.595 20.662 332.595 21.5147C332.595 22.3882 332.751 23.1265 333.063 23.7296C333.395 24.3327 333.842 24.7903 334.404 25.1022C334.966 25.4142 335.589 25.5702 336.276 25.5702C336.962 25.5702 337.596 25.3934 338.179 25.0399C338.761 24.6655 339.25 24.0832 339.645 23.2929L344.231 25.6326C343.648 27.1092 342.661 28.253 341.267 29.0641C339.874 29.8752 338.22 30.2808 336.307 30.2808Z" fill="#011D45"/>
<path d="M130.022 30V8.16288H150.518V30H144.404V11.688L145.776 13.0606H134.764L136.105 11.688V30H130.022ZM165.481 30.2808C164.046 30.2808 162.819 29.9688 161.8 29.3449C160.781 28.7002 160.001 27.7435 159.46 26.4749C158.94 25.1854 158.68 23.5425 158.68 21.5459C158.68 19.5286 158.93 17.8856 159.429 16.617C159.928 15.3275 160.677 14.3709 161.675 13.7469C162.694 13.123 163.963 12.8111 165.481 12.8111C167.02 12.8111 168.413 13.175 169.661 13.9029C170.93 14.61 171.928 15.6187 172.656 16.9289C173.404 18.2184 173.779 19.7574 173.779 21.5459C173.779 23.3345 173.404 24.8839 172.656 26.1941C171.928 27.5043 170.93 28.513 169.661 29.2201C168.413 29.9272 167.02 30.2808 165.481 30.2808ZM154.843 36.052V13.0918H160.489V15.9619L160.458 21.5459L160.77 27.1612V36.052H154.843ZM164.233 25.5702C164.898 25.5702 165.491 25.4142 166.011 25.1022C166.552 24.7903 166.978 24.3327 167.29 23.7296C167.623 23.1265 167.789 22.3986 167.789 21.5459C167.789 20.6932 167.623 19.9653 167.29 19.3622C166.978 18.7591 166.552 18.3015 166.011 17.9896C165.491 17.6776 164.898 17.5216 164.233 17.5216C163.567 17.5216 162.964 17.6776 162.424 17.9896C161.904 18.3015 161.477 18.7591 161.145 19.3622C160.833 19.9653 160.677 20.6932 160.677 21.5459C160.677 22.3986 160.833 23.1265 161.145 23.7296C161.477 24.3327 161.904 24.7903 162.424 25.1022C162.964 25.4142 163.567 25.5702 164.233 25.5702ZM184.955 30.2808C183.104 30.2808 181.461 29.9064 180.026 29.1577C178.591 28.409 177.457 27.3795 176.625 26.0693C175.814 24.7383 175.409 23.2201 175.409 21.5147C175.409 19.8093 175.814 18.3015 176.625 16.9913C177.457 15.6811 178.591 14.662 180.026 13.9341C181.461 13.1854 183.104 12.8111 184.955 12.8111C186.805 12.8111 188.448 13.1854 189.883 13.9341C191.339 14.662 192.473 15.6811 193.284 16.9913C194.095 18.3015 194.5 19.8093 194.5 21.5147C194.5 23.2201 194.095 24.7383 193.284 26.0693C192.473 27.3795 191.339 28.409 189.883 29.1577C188.448 29.9064 186.805 30.2808 184.955 30.2808ZM184.955 25.5702C185.641 25.5702 186.244 25.4142 186.764 25.1022C187.305 24.7903 187.731 24.3327 188.043 23.7296C188.355 23.1057 188.511 22.3674 188.511 21.5147C188.511 20.662 188.355 19.9445 188.043 19.3622C187.731 18.7591 187.305 18.3015 186.764 17.9896C186.244 17.6776 185.641 17.5216 184.955 17.5216C184.289 17.5216 183.686 17.6776 183.145 17.9896C182.625 18.3015 182.199 18.7591 181.866 19.3622C181.554 19.9445 181.398 20.662 181.398 21.5147C181.398 22.3674 181.554 23.1057 181.866 23.7296C182.199 24.3327 182.625 24.7903 183.145 25.1022C183.686 25.4142 184.289 25.5702 184.955 25.5702ZM197.28 30V13.0918H203.519L209.416 24.1352H206.951L213.409 13.0918H218.993L219.024 30H213.689V18.9567L214.594 19.5806L209.353 28.5026H206.826L201.585 19.1438L202.615 18.8631V30H197.28Z" fill="#FE0000"/>
<path d="M5.23358 14.6997C6.121 11.2395 9.23952 8.81982 12.8117 8.81982H20.5795C20.5795 8.81982 19.9585 9.84647 19.4707 11.7598C18.9828 13.673 18.7167 14.6997 18.7167 14.6997L17.2087 20.5795L15.7007 26.4594C14.8133 29.9196 11.6948 32.3392 8.1226 32.3392H0C0 32.3392 0.635383 31.7563 1.24187 29.726C2.21762 26.4594 2.21762 26.4594 2.21762 26.4594L3.7256 20.5795L5.23358 14.6997Z" fill="#FE0000"/>
<path d="M21.7773 14.6997C22.7316 11.2268 25.8892 8.81982 29.4908 8.81982H38.2194C38.2194 8.81982 37.5541 9.84647 37.0314 11.7598C36.5086 13.673 36.2235 14.6997 36.2235 14.6997L34.6078 20.5795L32.9921 26.4594C32.0378 29.9323 28.8803 32.3392 25.2786 32.3392H16.1699C16.1699 32.3392 16.8507 31.7563 17.5005 29.726C18.5459 26.4594 18.5459 26.4594 18.5459 26.4594L20.1616 20.5795L21.7773 14.6997Z" fill="#011D45"/>
<path d="M39.0422 14.6997C39.9296 11.2395 43.0481 8.81982 46.6203 8.81982H54.3881C54.3881 8.81982 53.7671 9.84647 53.2793 11.7598C52.7914 13.673 52.5253 14.6997 52.5253 14.6997L51.0173 20.5795L49.5093 26.4594C48.6219 29.9196 45.5034 32.3392 41.9312 32.3392H33.8086C33.8086 32.3392 34.444 31.7563 35.0505 29.726C36.0262 26.4594 36.0262 26.4594 36.0262 26.4594L37.5342 20.5795L39.0422 14.6997Z" fill="#011D45"/>
</svg>
